<?xml version="1.0" encoding="iso-8859-1"?>
<!-- Generator: Adobe Illustrator 19.0.0, SVG Export Plug-In . SVG Version: 6.00 Build 0)  -->
<svg version="1.1" id="Capa_1" xmlns="http://www.w3.org/2000/svg" xmlns:xlink="http://www.w3.org/1999/xlink" x="0px" y="0px"
	 viewBox="0 0 479 479" style="enable-background:new 0 0 479 479;" xml:space="preserve">
<g>
	<path d="M408.852,70.148C363.616,24.913,303.473,0,239.5,0S115.384,24.913,70.148,70.148C24.913,115.384,0,175.527,0,239.5
		s24.913,124.116,70.148,169.352C115.384,454.087,175.527,479,239.5,479s124.116-24.913,169.352-70.148
		C454.087,363.616,479,303.473,479,239.5S454.087,115.384,408.852,70.148z M458.691,190.636l-63.169-17.692
		c-2.542-0.712-5.273-0.034-7.188,1.784c-1.915,1.819-2.732,4.51-2.151,7.087l5.134,22.782c1.455,6.457,5.594,12.03,11.355,15.289
		c5.469,3.094,11.972,3.86,17.994,2.15v11.373c0,5.205-2.497,10.162-6.679,13.259l-38.24,28.322l-33.726-65.069
		c-1.906-3.677-6.432-5.114-10.11-3.208c-3.678,1.906-5.114,6.433-3.208,10.11l34.186,65.956
		c7.244,13.976,22.077,22.313,37.775,21.23l1.745-0.12l-2.515,13.842l-45.723,43.084c-0.801,0.754-1.425,1.676-1.83,2.699
		l-33.922,85.727c-8.409,1.568-17.014,0.162-24.574-4.076c-8.528-4.779-14.652-12.579-17.243-21.962
		C273.351,411.43,273,407.465,273,406.307v-36.14c0-3.104-1.911-5.886-4.808-7l-7.972-3.066
		c-10.566-4.064-19.91-10.867-27.023-19.673l-13.863-17.164c-1.719-2.128-4.458-3.152-7.153-2.671l-55.497,9.908
		c-9.562,1.708-19.236-2.401-24.648-10.464l-5.82-8.671c-9.877-14.716-10.943-33.63-2.781-49.363l12.722-24.525
		c0.58-1.117,0.869-2.363,0.841-3.621l-0.207-9.267c-0.183-8.203,5.548-15.191,13.627-16.618l49.679-8.771
		c8.238-1.453,16.615,0.288,23.588,4.904l28.681,18.983c1.924,1.273,4.329,1.591,6.518,0.858l46.995-15.711
		c0.981-0.328,1.883-0.855,2.65-1.548l6.798-6.143c6.125-5.535,9.618-13.443,9.584-21.698s-3.591-16.135-9.761-21.619
		c-1.939-1.723-4.629-2.322-7.116-1.585l-37.266,11.054l-23.094-21.14c-4.483-4.104-10.759-5.215-16.378-2.896
		c-5.619,2.318-9.287,7.53-9.571,13.602c-0.002,0.046-0.004,0.093-0.005,0.139l-7.365-6.528c-0.41-0.364-0.859-0.681-1.338-0.947
		c-11.942-6.623-26.692-4.83-36.703,4.46l-11.686,10.846c-0.596,0.553-1.098,1.199-1.486,1.913l-11.534,21.198l-14.355-3.99
		c-3.52-0.979-6.016-4.086-6.211-7.735l-0.573-10.69c-0.242-4.517,3.092-8.429,7.59-8.907l14.234-1.512
		c3.814-0.405,6.708-3.623,6.708-7.458v-18.767l28.826-21.753c3.417-2.579,6.229-5.77,8.358-9.486l9.824-17.15
		c1.459-2.548,1.298-5.713-0.414-8.099c-1.711-2.386-4.655-3.555-7.539-2.988l-35.21,6.911v-1.85c0-7.445,3.324-14.396,9.119-19.07
		l46.094-37.175l30.625,17.636c3.639,2.097,7.871,2.626,11.915,1.495c4.044-1.132,7.385-3.783,9.407-7.464l6.21-11.305
		c46.009,7.525,88.414,29.153,122.032,62.77C428.882,111.392,449.567,149.326,458.691,190.636z M238.943,174.174l-2.16-17.482
		c0.044-0.06,0.116-0.116,0.234-0.165c0.292-0.121,0.418-0.007,0.528,0.094l26.224,24.005c1.942,1.778,4.674,2.406,7.197,1.658
		l36.745-10.899c1.424,2.215,2.188,4.793,2.2,7.523c0.016,4.056-1.632,7.788-4.642,10.507l-5.634,5.091l-42.04,14.054
		l-25.631-16.964c-7.847-5.194-16.909-7.898-26.157-7.898c-2.765,0-5.547,0.242-8.317,0.731l-30.112,5.316l8.354-15.353
		l10.787-10.011c5.059-4.696,12.431-5.734,18.562-2.685l21.445,19.009c2.334,2.069,5.707,2.477,8.467,1.025
		C237.752,180.279,239.326,177.27,238.943,174.174z M243.65,15.051c5.558,0.1,11.083,0.402,16.567,0.9l-3.36,6.117
		c-0.025,0.046-0.101,0.185-0.303,0.241c-0.204,0.057-0.339-0.023-0.385-0.049L243.65,15.051z M80.754,398.246
		C38.352,355.843,15,299.466,15,239.5S38.352,123.157,80.754,80.754c30.703-30.703,68.735-51.408,110.149-60.502l-28.356,22.87
		c-9.343,7.536-14.702,18.743-14.702,30.746v10.965c0,2.242,1.003,4.367,2.735,5.792c1.731,1.425,4.011,2,6.209,1.568l28.04-5.503
		l-1.661,2.899c-1.116,1.947-2.589,3.619-4.378,4.969l-31.808,24.003c-1.878,1.417-2.982,3.634-2.982,5.987v15.757l-7.526,0.8
		c-12.437,1.321-21.654,12.138-20.984,24.625l0.573,10.69c0.54,10.086,7.441,18.68,17.172,21.385l1.994,0.554
		c-8.43,5.851-13.678,15.644-13.434,26.564l0.164,7.35l-11.839,22.822c-10.686,20.598-9.29,45.362,3.642,64.629l5.82,8.671
		c8.726,13.001,24.325,19.625,39.739,16.872l51.131-9.128l11.077,13.714c8.767,10.854,20.284,19.239,33.307,24.248l3.164,1.217
		v30.989c0,2.527,0.43,7.441,4.144,20.891c3.666,13.273,12.32,24.302,24.369,31.054c0.374,0.21,0.759,0.391,1.137,0.591
		C272.008,462.243,255.89,464,239.5,464C179.534,464,123.157,440.648,80.754,398.246z M398.246,398.246
		c-17.968,17.968-38.452,32.5-60.648,43.299l28.077-70.956l46.302-43.63c1.166-1.099,1.949-2.542,2.236-4.118l4.678-25.751
		c0.414-2.276-0.247-4.616-1.79-6.341c-1.543-1.725-3.793-2.64-6.104-2.482l-11.36,0.78c-4.829,0.331-9.522-0.775-13.576-3.028
		l36.854-27.296c7.984-5.914,12.751-15.376,12.751-25.313v-21.733c0-2.408-1.156-4.669-3.108-6.08
		c-1.952-1.411-4.462-1.797-6.749-1.041l-8.896,2.945c-2.308,0.762-4.742,0.524-6.855-0.671c-2.114-1.196-3.573-3.16-4.107-5.53
		l-2.371-10.522l58.099,16.272c1.533,10.656,2.322,21.492,2.322,32.45C464,299.466,440.648,355.843,398.246,398.246z"/>
	<path d="M115.576,98.023l8.233,5.055l-4.498,20.245c-0.898,4.043,1.651,8.049,5.695,8.948c0.548,0.122,1.095,0.18,1.633,0.18
		c3.438,0,6.538-2.379,7.314-5.875l5.658-25.465c0.694-3.124-0.67-6.344-3.397-8.018l-12.791-7.853
		c-3.53-2.167-8.148-1.063-10.316,2.467C110.941,91.238,112.046,95.856,115.576,98.023z"/>
	<path d="M284.167,150.694h22.22c1.606,0,3.169-0.516,4.46-1.47l12.447-9.208c3.33-2.463,4.033-7.16,1.569-10.49
		c-2.464-3.33-7.16-4.032-10.49-1.569l-10.459,7.737h-19.747c-4.142,0-7.5,3.358-7.5,7.5S280.024,150.694,284.167,150.694z"/>
	<path d="M348.615,138.406c1.468,2.013,3.751,3.081,6.066,3.081c1.533,0,3.08-0.469,4.413-1.441
		c3.347-2.441,4.081-7.132,1.64-10.479l-20.483-28.084c-2.44-3.347-7.133-4.081-10.479-1.64c-3.347,2.441-4.081,7.132-1.64,10.479
		L348.615,138.406z"/>
</g>
<g>
</g>
<g>
</g>
<g>
</g>
<g>
</g>
<g>
</g>
<g>
</g>
<g>
</g>
<g>
</g>
<g>
</g>
<g>
</g>
<g>
</g>
<g>
</g>
<g>
</g>
<g>
</g>
<g>
</g>
</svg>
