<?xml version="1.0" encoding="iso-8859-1"?>
<!-- Generator: Adobe Illustrator 18.0.0, SVG Export Plug-In . SVG Version: 6.00 Build 0)  -->
<!DOCTYPE svg PUBLIC "-//W3C//DTD SVG 1.1//EN" "http://www.w3.org/Graphics/SVG/1.1/DTD/svg11.dtd">
<svg version="1.1" id="Capa_1" xmlns="http://www.w3.org/2000/svg" xmlns:xlink="http://www.w3.org/1999/xlink" x="0px" y="0px"
	 viewBox="0 0 490 490" style="enable-background:new 0 0 490 490;" xml:space="preserve">
<g>
	<path d="M252.841,187.583c-6.06,0-7.76,3.474-7.76,7.759v107.011c0,4.286,3.475,7.759,7.76,7.759h107.278
		c4.285,0,7.76-3.474,7.76-7.759C367.879,239.066,316.392,187.583,252.841,187.583z"/>
	<path d="M407.441,203.704c1.435,1.566,3.477,2.465,5.601,2.465h0.001c1.901,0,3.724-0.707,5.133-1.995l17.147-15.714
		c3.084-2.831,3.293-7.643,0.466-10.727l-37.779-41.226c-1.434-1.566-3.475-2.464-5.6-2.464c-1.903,0-3.726,0.709-5.127,1.994
		l-17.148,15.713c-1.496,1.371-2.369,3.243-2.457,5.271c-0.088,2.027,0.621,3.966,1.991,5.456l5.482,5.984l-9.616,9.062
		c-25.141-22.812-56.75-38.617-91.718-44.282v-15.03c20.068-10.448,33.814-31.433,33.814-55.58C307.631,28.096,279.535,0,245,0
		c-34.535,0-62.631,28.096-62.631,62.631c0,24.147,13.745,45.132,33.815,55.58v15.03c-34.968,5.665-66.578,21.47-91.718,44.282
		l-9.616-9.062l5.481-5.982c1.372-1.495,2.079-3.435,1.991-5.462c-0.09-2.027-0.962-3.897-2.457-5.268l-17.147-15.714
		c-1.403-1.286-3.225-1.994-5.128-1.994c-2.124,0-4.165,0.898-5.6,2.463l-37.779,41.227c-2.827,3.084-2.618,7.896,0.468,10.73
		l17.149,15.713c1.405,1.286,3.227,1.993,5.129,1.993c2.125,0,4.166-0.898,5.599-2.464l6.595-7.197l9.974,9.4
		c-21.181,29.463-33.666,65.575-33.666,104.551C65.458,409.458,146,490,245,490s179.542-80.542,179.542-179.541
		c0-38.976-12.485-75.088-33.666-104.551l9.974-9.4L407.441,203.704z M208.33,62.631c0-20.22,16.45-36.67,36.67-36.67
		c20.22,0,36.67,16.451,36.67,36.67c0,8.539-2.941,16.398-7.854,22.638v-8.254c0-5.778-4.686-10.463-10.464-10.463h-36.705
		c-5.778,0-10.464,4.686-10.464,10.463v8.254C211.271,79.029,208.33,71.169,208.33,62.631z M245,459.886
		c-82.395,0-149.428-67.033-149.428-149.427c0-82.395,67.033-149.428,149.428-149.428s149.428,67.033,149.428,149.428
		C394.428,392.853,327.394,459.886,245,459.886z"/>
</g>
<g>
</g>
<g>
</g>
<g>
</g>
<g>
</g>
<g>
</g>
<g>
</g>
<g>
</g>
<g>
</g>
<g>
</g>
<g>
</g>
<g>
</g>
<g>
</g>
<g>
</g>
<g>
</g>
<g>
</g>
</svg>
