<?xml version="1.0" encoding="iso-8859-1"?>
<!-- Generator: Adobe Illustrator 18.0.0, SVG Export Plug-In . SVG Version: 6.00 Build 0)  -->
<!DOCTYPE svg PUBLIC "-//W3C//DTD SVG 1.1//EN" "http://www.w3.org/Graphics/SVG/1.1/DTD/svg11.dtd">
<svg version="1.1" id="Capa_1" xmlns="http://www.w3.org/2000/svg" xmlns:xlink="http://www.w3.org/1999/xlink" x="0px" y="0px"
	 viewBox="0 0 490 490" style="enable-background:new 0 0 490 490;" xml:space="preserve">
<g>
	<g>
		<g>
			<path d="M393.934,228.102h-42.707v21.397c0,1.783-1.445,3.23-3.23,3.23H334.36c-1.783,0-3.23-1.446-3.23-3.23v-21.397h-42.705
				c-7.135,0-12.92,5.784-12.92,12.919v105.51c0,7.135,5.785,12.919,12.92,12.919h105.509c7.135,0,12.92-5.784,12.92-12.919v-105.51
				C406.853,233.886,401.068,228.102,393.934,228.102z"/>
			<path d="M201.575,228.102h-42.707v21.397c0,1.783-1.445,3.23-3.229,3.23h-13.637c-1.784,0-3.23-1.446-3.23-3.23v-21.397H96.066
				c-7.136,0-12.92,5.784-12.92,12.919v105.51c0,7.135,5.784,12.919,12.92,12.919h105.509c7.135,0,12.92-5.784,12.92-12.919v-105.51
				C214.495,233.886,208.71,228.102,201.575,228.102z"/>
		</g>
		<g>
			<path d="M393.934,4.146h-42.707v21.397c0,1.784-1.445,3.231-3.23,3.231H334.36c-1.783,0-3.23-1.446-3.23-3.231V4.146h-42.705
				c-7.135,0-12.92,5.784-12.92,12.92v105.509c0,7.136,5.785,12.92,12.92,12.92h105.509c7.135,0,12.92-5.784,12.92-12.92V17.066
				C406.853,9.93,401.068,4.146,393.934,4.146z"/>
			<path d="M201.575,4.146h-42.707v21.397c0,1.784-1.445,3.231-3.229,3.231h-13.637c-1.784,0-3.23-1.446-3.23-3.231V4.146H96.066
				c-7.136,0-12.92,5.784-12.92,12.92v105.509c0,7.136,5.784,12.92,12.92,12.92h105.509c7.135,0,12.92-5.784,12.92-12.92V17.066
				C214.495,9.93,208.71,4.146,201.575,4.146z"/>
		</g>
	</g>
	<path d="M485.693,4.146h-37.682c-2.379,0-4.307,1.929-4.307,4.307v157.16H46.295V8.453c0-2.378-1.929-4.307-4.307-4.307H4.307
		C1.928,4.146,0,6.075,0,8.453v473.096c0,2.378,1.928,4.306,4.307,4.306h37.682c2.378,0,4.307-1.928,4.307-4.306V421.85h397.41
		v59.698c0,2.378,1.928,4.306,4.307,4.306h37.682c2.378,0,4.307-1.928,4.307-4.306V8.453C490,6.075,488.071,4.146,485.693,4.146z
		 M23.147,414.673c-4.954,0-8.973-4.018-8.973-8.973c0-4.955,4.019-8.973,8.973-8.973c4.956,0,8.973,4.018,8.973,8.973
		C32.12,410.656,28.104,414.673,23.147,414.673z M23.147,190.735c-4.954,0-8.973-4.018-8.973-8.973c0-4.955,4.019-8.973,8.973-8.973
		c4.956,0,8.973,4.018,8.973,8.973C32.12,186.717,28.104,190.735,23.147,190.735z M443.705,389.551H46.295v-191.64h397.41V389.551z
		 M466.853,414.673c-4.954,0-8.973-4.018-8.973-8.973c0-4.955,4.019-8.973,8.973-8.973c4.955,0,8.973,4.018,8.973,8.973
		C475.825,410.656,471.808,414.673,466.853,414.673z M466.853,190.735c-4.954,0-8.973-4.018-8.973-8.973
		c0-4.955,4.019-8.973,8.973-8.973c4.955,0,8.973,4.018,8.973,8.973C475.825,186.717,471.808,190.735,466.853,190.735z"/>
</g>
<g>
</g>
<g>
</g>
<g>
</g>
<g>
</g>
<g>
</g>
<g>
</g>
<g>
</g>
<g>
</g>
<g>
</g>
<g>
</g>
<g>
</g>
<g>
</g>
<g>
</g>
<g>
</g>
<g>
</g>
</svg>
